# Blender 4.1.0
# www.blender.org
mtllib TD_Wallpaper.mtl
o Untitled.001
v -1.500000 0.000000 0.100000
v -1.500000 -0.000000 -0.100000
v -1.500000 0.100000 0.100000
v -1.500000 0.100000 -0.000000
v -1.500000 0.900000 0.100000
v -1.500000 0.900000 -0.000000
v -1.500000 1.000000 0.100000
v -1.500000 1.000000 -0.000000
v -1.500000 4.000000 -0.000000
v -1.500000 4.000000 -0.100000
v -1.400000 0.200000 0.100000
v -1.400000 0.200000 -0.000000
v -1.400000 0.800000 0.100000
v -1.400000 0.800000 -0.000000
v -1.100000 0.300000 0.100000
v -1.100000 0.300000 -0.000000
v -1.100000 0.700000 0.100000
v -1.100000 0.700000 -0.000000
v -0.900000 0.200000 0.100000
v -0.900000 0.200000 -0.000000
v -0.900000 0.800000 0.100000
v -0.900000 0.800000 -0.000000
v -0.600000 0.300000 0.100000
v -0.600000 0.300000 -0.000000
v -0.600000 0.700000 0.100000
v -0.600000 0.700000 -0.000000
v -0.400000 0.200000 0.100000
v -0.400000 0.200000 -0.000000
v -0.400000 0.800000 0.100000
v -0.400000 0.800000 -0.000000
v -0.100000 0.300000 0.100000
v -0.100000 0.300000 -0.000000
v -0.100000 0.700000 0.100000
v -0.100000 0.700000 -0.000000
v 0.100000 0.200000 0.100000
v 0.100000 0.200000 -0.000000
v 0.100000 0.800000 0.100000
v 0.100000 0.800000 -0.000000
v 0.400000 0.300000 0.100000
v 0.400000 0.300000 -0.000000
v 0.400000 0.700000 0.100000
v 0.400000 0.700000 -0.000000
v 0.600000 0.200000 0.100000
v 0.600000 0.200000 -0.000000
v 0.600000 0.800000 0.100000
v 0.600000 0.800000 -0.000000
v 0.900000 0.300000 0.100000
v 0.900000 0.300000 -0.000000
v 0.900000 0.700000 0.100000
v 0.900000 0.700000 -0.000000
v 1.100000 0.200000 0.100000
v 1.100000 0.200000 -0.000000
v 1.100000 0.800000 0.100000
v 1.100000 0.800000 -0.000000
v 1.400000 0.300000 0.100000
v 1.400000 0.300000 -0.000000
v 1.400000 0.700000 0.100000
v 1.400000 0.700000 -0.000000
v -1.300000 0.300000 0.100000
v -1.300000 0.300000 -0.000000
v -1.300000 0.700000 0.100000
v -1.300000 0.700000 -0.000000
v -1.000000 0.200000 0.100000
v -1.000000 0.200000 -0.000000
v -1.000000 0.800000 0.100000
v -1.000000 0.800000 -0.000000
v -0.800000 0.300000 0.100000
v -0.800000 0.300000 -0.000000
v -0.800000 0.700000 0.100000
v -0.800000 0.700000 -0.000000
v -0.500000 0.200000 0.100000
v -0.500000 0.200000 -0.000000
v -0.500000 0.800000 0.100000
v -0.500000 0.800000 -0.000000
v -0.300000 0.300000 0.100000
v -0.300000 0.300000 -0.000000
v -0.300000 0.700000 0.100000
v -0.300000 0.700000 -0.000000
v 0.000000 0.200000 0.100000
v 0.000000 0.200000 -0.000000
v 0.000000 0.800000 0.100000
v 0.000000 0.800000 -0.000000
v 0.200000 0.300000 0.100000
v 0.200000 0.300000 -0.000000
v 0.200000 0.700000 0.100000
v 0.200000 0.700000 -0.000000
v 0.500000 0.200000 0.100000
v 0.500000 0.200000 -0.000000
v 0.500000 0.800000 0.100000
v 0.500000 0.800000 -0.000000
v 0.700000 0.300000 0.100000
v 0.700000 0.300000 -0.000000
v 0.700000 0.700000 0.100000
v 0.700000 0.700000 -0.000000
v 1.000000 0.200000 0.100000
v 1.000000 0.200000 -0.000000
v 1.000000 0.800000 0.100000
v 1.000000 0.800000 -0.000000
v 1.200000 0.300000 0.100000
v 1.200000 0.300000 -0.000000
v 1.200000 0.700000 0.100000
v 1.200000 0.700000 -0.000000
v 1.500000 0.000000 0.100000
v 1.500000 -0.000000 -0.100000
v 1.500000 0.100000 0.100000
v 1.500000 0.100000 -0.000000
v 1.500000 0.200000 0.100000
v 1.500000 0.200000 -0.000000
v 1.500000 0.800000 0.100000
v 1.500000 0.800000 -0.000000
v 1.500000 0.900000 0.100000
v 1.500000 0.900000 -0.000000
v 1.500000 1.000000 0.100000
v 1.500000 1.000000 -0.000000
v 1.500000 4.000000 -0.000000
v 1.500000 4.000000 -0.100000
v -1.500000 0.000000 0.100000
v -1.500000 0.100000 0.100000
v -1.500000 0.900000 0.100000
v -1.500000 1.000000 0.100000
v -1.400000 0.200000 0.100000
v -1.400000 0.800000 0.100000
v -1.300000 0.300000 0.100000
v -1.300000 0.700000 0.100000
v -1.100000 0.300000 0.100000
v -1.100000 0.700000 0.100000
v -1.000000 0.200000 0.100000
v -1.000000 0.800000 0.100000
v -0.900000 0.200000 0.100000
v -0.900000 0.800000 0.100000
v -0.800000 0.300000 0.100000
v -0.800000 0.700000 0.100000
v -0.600000 0.300000 0.100000
v -0.600000 0.700000 0.100000
v -0.500000 0.200000 0.100000
v -0.500000 0.800000 0.100000
v -0.400000 0.200000 0.100000
v -0.400000 0.800000 0.100000
v -0.300000 0.300000 0.100000
v -0.300000 0.700000 0.100000
v -0.100000 0.300000 0.100000
v -0.100000 0.700000 0.100000
v 0.000000 0.200000 0.100000
v 0.000000 0.800000 0.100000
v 0.100000 0.200000 0.100000
v 0.100000 0.800000 0.100000
v 0.200000 0.300000 0.100000
v 0.200000 0.700000 0.100000
v 0.400000 0.300000 0.100000
v 0.400000 0.700000 0.100000
v 0.500000 0.200000 0.100000
v 0.500000 0.800000 0.100000
v 0.600000 0.200000 0.100000
v 0.600000 0.800000 0.100000
v 0.700000 0.300000 0.100000
v 0.700000 0.700000 0.100000
v 0.900000 0.300000 0.100000
v 0.900000 0.700000 0.100000
v 1.000000 0.200000 0.100000
v 1.000000 0.800000 0.100000
v 1.100000 0.200000 0.100000
v 1.100000 0.800000 0.100000
v 1.200000 0.300000 0.100000
v 1.200000 0.700000 0.100000
v 1.400000 0.300000 0.100000
v 1.400000 0.700000 0.100000
v 1.500000 0.000000 0.100000
v 1.500000 0.100000 0.100000
v 1.500000 0.200000 0.100000
v 1.500000 0.800000 0.100000
v 1.500000 0.900000 0.100000
v 1.500000 1.000000 0.100000
v -1.500000 0.100000 -0.000000
v -1.500000 0.900000 -0.000000
v -1.500000 1.000000 -0.000000
v -1.500000 4.000000 -0.000000
v -1.400000 0.200000 -0.000000
v -1.400000 0.800000 -0.000000
v -1.300000 0.300000 -0.000000
v -1.300000 0.700000 -0.000000
v -1.100000 0.300000 -0.000000
v -1.100000 0.700000 -0.000000
v -1.000000 0.200000 -0.000000
v -1.000000 0.300000 -0.000000
v -1.000000 0.800000 -0.000000
v -0.900000 0.200000 -0.000000
v -0.900000 0.300000 -0.000000
v -0.900000 0.500000 -0.000000
v -0.900000 0.800000 -0.000000
v -0.800000 0.300000 -0.000000
v -0.800000 0.700000 -0.000000
v -0.600000 0.300000 -0.000000
v -0.600000 0.700000 -0.000000
v -0.500000 0.200000 -0.000000
v -0.500000 0.500000 -0.000000
v -0.500000 0.800000 -0.000000
v -0.400000 0.200000 -0.000000
v -0.400000 0.400000 -0.000000
v -0.400000 0.800000 -0.000000
v -0.300000 0.300000 -0.000000
v -0.300000 0.700000 -0.000000
v -0.100000 0.300000 -0.000000
v -0.100000 0.700000 -0.000000
v 0.000000 0.200000 -0.000000
v 0.000000 0.300000 -0.000000
v 0.000000 0.800000 -0.000000
v 0.100000 0.200000 -0.000000
v 0.100000 0.800000 -0.000000
v 0.200000 0.300000 -0.000000
v 0.200000 0.700000 -0.000000
v 0.400000 0.300000 -0.000000
v 0.400000 0.700000 -0.000000
v 0.500000 0.200000 -0.000000
v 0.500000 0.400000 -0.000000
v 0.500000 0.800000 -0.000000
v 0.600000 0.200000 -0.000000
v 0.600000 0.300000 -0.000000
v 0.600000 0.800000 -0.000000
v 0.700000 0.300000 -0.000000
v 0.700000 0.700000 -0.000000
v 0.900000 0.300000 -0.000000
v 0.900000 0.700000 -0.000000
v 1.000000 0.200000 -0.000000
v 1.000000 0.800000 -0.000000
v 1.100000 0.200000 -0.000000
v 1.100000 0.800000 -0.000000
v 1.200000 0.300000 -0.000000
v 1.200000 0.700000 -0.000000
v 1.400000 0.300000 -0.000000
v 1.400000 0.700000 -0.000000
v 1.500000 0.100000 -0.000000
v 1.500000 0.200000 -0.000000
v 1.500000 0.800000 -0.000000
v 1.500000 0.900000 -0.000000
v 1.500000 1.000000 -0.000000
v 1.500000 4.000000 -0.000000
v -1.500000 -0.000000 -0.100000
v -1.500000 4.000000 -0.100000
v 1.500000 -0.000000 -0.100000
v 1.500000 4.000000 -0.100000
v -1.500000 0.000000 0.100000
v 1.500000 0.000000 0.100000
v -1.500000 -0.000000 -0.100000
v 1.500000 -0.000000 -0.100000
v -1.400000 0.200000 0.100000
v -1.000000 0.200000 0.100000
v -0.900000 0.200000 0.100000
v -0.500000 0.200000 0.100000
v -0.400000 0.200000 0.100000
v 0.000000 0.200000 0.100000
v 0.100000 0.200000 0.100000
v 0.500000 0.200000 0.100000
v 0.600000 0.200000 0.100000
v 1.000000 0.200000 0.100000
v 1.100000 0.200000 0.100000
v 1.500000 0.200000 0.100000
v -1.400000 0.200000 -0.000000
v -1.000000 0.200000 -0.000000
v -0.900000 0.200000 -0.000000
v -0.500000 0.200000 -0.000000
v -0.400000 0.200000 -0.000000
v 0.000000 0.200000 -0.000000
v 0.100000 0.200000 -0.000000
v 0.500000 0.200000 -0.000000
v 0.600000 0.200000 -0.000000
v 1.000000 0.200000 -0.000000
v 1.100000 0.200000 -0.000000
v 1.500000 0.200000 -0.000000
v -1.300000 0.700000 0.100000
v -1.100000 0.700000 0.100000
v -0.800000 0.700000 0.100000
v -0.600000 0.700000 0.100000
v -0.300000 0.700000 0.100000
v -0.100000 0.700000 0.100000
v 0.200000 0.700000 0.100000
v 0.400000 0.700000 0.100000
v 0.700000 0.700000 0.100000
v 0.900000 0.700000 0.100000
v 1.200000 0.700000 0.100000
v 1.400000 0.700000 0.100000
v -1.300000 0.700000 -0.000000
v -1.100000 0.700000 -0.000000
v -0.800000 0.700000 -0.000000
v -0.600000 0.700000 -0.000000
v -0.300000 0.700000 -0.000000
v -0.100000 0.700000 -0.000000
v 0.200000 0.700000 -0.000000
v 0.400000 0.700000 -0.000000
v 0.700000 0.700000 -0.000000
v 0.900000 0.700000 -0.000000
v 1.200000 0.700000 -0.000000
v 1.400000 0.700000 -0.000000
v -1.500000 0.900000 0.100000
v 1.500000 0.900000 0.100000
v -1.500000 0.900000 -0.000000
v 1.500000 0.900000 -0.000000
v -1.500000 0.100000 0.100000
v 1.500000 0.100000 0.100000
v -1.500000 0.100000 -0.000000
v 1.500000 0.100000 -0.000000
v -1.300000 0.300000 0.100000
v -1.100000 0.300000 0.100000
v -0.800000 0.300000 0.100000
v -0.600000 0.300000 0.100000
v -0.300000 0.300000 0.100000
v -0.100000 0.300000 0.100000
v 0.200000 0.300000 0.100000
v 0.400000 0.300000 0.100000
v 0.700000 0.300000 0.100000
v 0.900000 0.300000 0.100000
v 1.200000 0.300000 0.100000
v 1.400000 0.300000 0.100000
v -1.300000 0.300000 -0.000000
v -1.100000 0.300000 -0.000000
v -0.800000 0.300000 -0.000000
v -0.600000 0.300000 -0.000000
v -0.300000 0.300000 -0.000000
v -0.100000 0.300000 -0.000000
v 0.200000 0.300000 -0.000000
v 0.400000 0.300000 -0.000000
v 0.700000 0.300000 -0.000000
v 0.900000 0.300000 -0.000000
v 1.200000 0.300000 -0.000000
v 1.400000 0.300000 -0.000000
v -1.400000 0.800000 0.100000
v -1.000000 0.800000 0.100000
v -0.900000 0.800000 0.100000
v -0.500000 0.800000 0.100000
v -0.400000 0.800000 0.100000
v 0.000000 0.800000 0.100000
v 0.100000 0.800000 0.100000
v 0.500000 0.800000 0.100000
v 0.600000 0.800000 0.100000
v 1.000000 0.800000 0.100000
v 1.100000 0.800000 0.100000
v 1.500000 0.800000 0.100000
v -1.400000 0.800000 -0.000000
v -1.000000 0.800000 -0.000000
v -0.900000 0.800000 -0.000000
v -0.500000 0.800000 -0.000000
v -0.400000 0.800000 -0.000000
v 0.000000 0.800000 -0.000000
v 0.100000 0.800000 -0.000000
v 0.500000 0.800000 -0.000000
v 0.600000 0.800000 -0.000000
v 1.000000 0.800000 -0.000000
v 1.100000 0.800000 -0.000000
v 1.500000 0.800000 -0.000000
v -1.500000 1.000000 0.100000
v 1.500000 1.000000 0.100000
v -1.500000 1.000000 -0.000000
v 1.500000 1.000000 -0.000000
v -1.500000 4.000000 -0.000000
v 1.500000 4.000000 -0.000000
v -1.500000 4.000000 -0.100000
v 1.500000 4.000000 -0.100000
vn -0.0000 -1.0000 -0.0000
vn 1.0000 -0.0000 -0.0000
vn -1.0000 -0.0000 -0.0000
vn -0.0000 -0.0000 1.0000
vn -0.0000 1.0000 -0.0000
vn -0.0000 -0.0000 -1.0000
vt 0.594282 0.927930
vt 0.594282 0.467155
vt 0.625000 0.467155
vt 0.625000 0.927930
vt 0.330576 0.778592
vt 0.330576 0.717155
vt 0.345935 0.717155
vt 0.345935 0.778592
vt 0.148865 0.778592
vt 0.133506 0.778592
vt 0.133506 0.717155
vt 0.148865 0.717155
vt 0.781899 0.787098
vt 0.766540 0.787098
vt 0.766540 0.694943
vt 0.781899 0.694943
vt 0.002127 0.809310
vt 0.002127 0.717155
vt 0.017486 0.717155
vt 0.017486 0.809310
vt 0.426984 0.620747
vt 0.426984 0.682184
vt 0.396266 0.682184
vt 0.396266 0.620747
vt 0.048204 0.697543
vt 0.002127 0.712902
vt 0.002127 0.620747
vt 0.063563 0.620747
vt 0.048204 0.636106
vt 0.017486 0.636106
vt 0.017486 0.697543
vt 0.392012 0.620747
vt 0.392012 0.712902
vt 0.330576 0.712902
vt 0.345935 0.697543
vt 0.376653 0.697543
vt 0.376653 0.636106
vt 0.801511 0.694943
vt 0.801511 0.787098
vt 0.786152 0.787098
vt 0.786152 0.694943
vt 0.231568 0.813563
vt 0.231568 0.782845
vt 0.246927 0.782845
vt 0.246927 0.813563
vt 0.528592 0.774339
vt 0.513233 0.758979
vt 0.574669 0.758979
vt 0.574669 0.774339
vt 0.063563 0.712902
vt 0.365547 0.717155
vt 0.365547 0.778592
vt 0.350188 0.778592
vt 0.350188 0.717155
vt 0.199196 0.712902
vt 0.199196 0.620747
vt 0.214555 0.636106
vt 0.214555 0.697543
vt 0.245274 0.697543
vt 0.245274 0.636106
vt 0.260633 0.620747
vt 0.260633 0.712902
vt 0.129253 0.620747
vt 0.129253 0.712902
vt 0.067816 0.712902
vt 0.083176 0.697543
vt 0.113894 0.697543
vt 0.113894 0.636106
vt 0.727315 0.927930
vt 0.727315 0.467155
vt 0.742674 0.467155
vt 0.742674 0.927930
vt 0.962902 0.002127
vt 0.962902 0.616494
vt 0.932184 0.616494
vt 0.932184 0.601134
vt 0.947543 0.601134
vt 0.947543 0.478261
vt 0.932184 0.478261
vt 0.932184 0.462902
vt 0.947543 0.462902
vt 0.947543 0.002127
vt 0.982514 0.017486
vt 0.967155 0.017486
vt 0.967155 0.002127
vt 0.997873 0.002127
vt 0.997873 0.616494
vt 0.982514 0.616494
vt 0.982514 0.155718
vt 0.967155 0.155718
vt 0.967155 0.140359
vt 0.982514 0.140359
vt 0.982514 0.125000
vt 0.967155 0.125000
vt 0.967155 0.032845
vt 0.982514 0.032845
vt 0.168478 0.717155
vt 0.168478 0.778592
vt 0.153119 0.778592
vt 0.153119 0.717155
vt 0.797258 0.467155
vt 0.797258 0.559310
vt 0.781899 0.559310
vt 0.781899 0.467155
vt 0.746927 0.532845
vt 0.777645 0.532845
vt 0.777645 0.594282
vt 0.746927 0.594282
vt 0.142012 0.813563
vt 0.126653 0.813563
vt 0.126653 0.782845
vt 0.142012 0.782845
vt 0.497873 0.851135
vt 0.497873 0.835775
vt 0.528592 0.835775
vt 0.574669 0.851135
vt 0.290405 0.782845
vt 0.305764 0.782845
vt 0.305764 0.813563
vt 0.290405 0.813563
vt 0.801511 0.532845
vt 0.816870 0.532845
vt 0.816870 0.594282
vt 0.801511 0.594282
vt 0.207702 0.717155
vt 0.207702 0.778592
vt 0.192343 0.778592
vt 0.192343 0.717155
vt 0.723062 0.467155
vt 0.723062 0.927930
vt 0.707703 0.927930
vt 0.707703 0.467155
vt 0.122400 0.778592
vt 0.107041 0.778592
vt 0.107041 0.717155
vt 0.122400 0.717155
vt 0.083176 0.636106
vt 0.067816 0.620747
vt 0.056710 0.717155
vt 0.056710 0.809310
vt 0.041351 0.809310
vt 0.041351 0.717155
vt 0.801511 0.598535
vt 0.801511 0.690690
vt 0.786152 0.690690
vt 0.786152 0.598535
vt 0.194943 0.620747
vt 0.194943 0.712902
vt 0.133506 0.712902
vt 0.148865 0.697543
vt 0.179584 0.697543
vt 0.179584 0.636106
vt 0.188090 0.717155
vt 0.188090 0.778592
vt 0.172731 0.778592
vt 0.172731 0.717155
vt 0.148865 0.636106
vt 0.133506 0.620747
vt 0.345935 0.636106
vt 0.330576 0.620747
vt 0.266539 0.813563
vt 0.251180 0.813563
vt 0.251180 0.782845
vt 0.266539 0.782845
vt 0.746927 0.528592
vt 0.746927 0.467155
vt 0.777645 0.467155
vt 0.777645 0.528592
vt 0.482514 0.543951
vt 0.482514 0.605388
vt 0.497873 0.605388
vt 0.513233 0.620747
vt 0.482514 0.620747
vt 0.482514 0.682184
vt 0.497873 0.697543
vt 0.482514 0.697543
vt 0.467155 0.927930
vt 0.467155 0.467155
vt 0.482514 0.467155
vt 0.482514 0.528592
vt 0.574669 0.528592
vt 0.574669 0.467155
vt 0.590029 0.467155
vt 0.590029 0.927930
vt 0.574669 0.543951
vt 0.246927 0.778592
vt 0.231568 0.778592
vt 0.231568 0.717155
vt 0.246927 0.717155
vt 0.037098 0.717155
vt 0.037098 0.809310
vt 0.021739 0.809310
vt 0.021739 0.717155
vt 0.227315 0.778592
vt 0.211955 0.778592
vt 0.211955 0.717155
vt 0.227315 0.717155
vt 0.797258 0.594282
vt 0.781899 0.594282
vt 0.781899 0.563563
vt 0.797258 0.563563
vt 0.688090 0.467155
vt 0.703449 0.467155
vt 0.703449 0.927930
vt 0.688090 0.927930
vt 0.821123 0.467155
vt 0.836483 0.467155
vt 0.836483 0.528592
vt 0.821123 0.528592
vt 0.664225 0.467155
vt 0.664225 0.927930
vt 0.648866 0.927930
vt 0.648866 0.467155
vt 0.266539 0.717155
vt 0.266539 0.778592
vt 0.251180 0.778592
vt 0.251180 0.717155
vt 0.762286 0.598535
vt 0.762286 0.690690
vt 0.746927 0.690690
vt 0.746927 0.598535
vt 0.431237 0.813563
vt 0.415878 0.813563
vt 0.415878 0.752126
vt 0.431237 0.752126
vt 0.188090 0.813563
vt 0.172731 0.813563
vt 0.172731 0.782845
vt 0.188090 0.782845
vt 0.310963 0.697543
vt 0.310963 0.636106
vt 0.326323 0.620747
vt 0.326323 0.712902
vt 0.264886 0.712902
vt 0.461955 0.747873
vt 0.431237 0.747873
vt 0.431237 0.686437
vt 0.461955 0.686437
vt 0.286151 0.717155
vt 0.286151 0.778592
vt 0.270792 0.778592
vt 0.270792 0.717155
vt 0.305764 0.717155
vt 0.305764 0.778592
vt 0.290405 0.778592
vt 0.290405 0.717155
vt 0.467155 0.462902
vt 0.467155 0.002127
vt 0.927930 0.002127
vt 0.927930 0.462902
vt 0.805764 0.729914
vt 0.821123 0.729914
vt 0.821123 0.791351
vt 0.805764 0.791351
vt 0.426984 0.747873
vt 0.396266 0.747873
vt 0.396266 0.686437
vt 0.426984 0.686437
vt 0.805764 0.598535
vt 0.821123 0.598535
vt 0.821123 0.659971
vt 0.805764 0.659971
vt 0.431237 0.620747
vt 0.461955 0.620747
vt 0.461955 0.682184
vt 0.431237 0.682184
vt 0.683837 0.927930
vt 0.668478 0.927930
vt 0.668478 0.467155
vt 0.683837 0.467155
vt 0.762286 0.694943
vt 0.762286 0.787098
vt 0.746927 0.787098
vt 0.746927 0.694943
vt 0.781899 0.690690
vt 0.766540 0.690690
vt 0.766540 0.598535
vt 0.781899 0.598535
vt 0.325376 0.717155
vt 0.325376 0.778592
vt 0.310017 0.778592
vt 0.310017 0.717155
vt 0.574669 0.835775
vt 0.574669 0.697543
vt 0.574669 0.682184
vt 0.574669 0.620747
vt 0.574669 0.605388
vt 0.482514 0.758979
vt 0.482514 0.774339
vt 0.482514 0.835775
vt 0.482514 0.851135
vt 0.482514 0.912571
vt 0.574669 0.912571
vt 0.083176 0.717155
vt 0.083176 0.809310
vt 0.067816 0.809310
vt 0.067816 0.717155
vt 0.122400 0.813563
vt 0.107041 0.813563
vt 0.107041 0.782845
vt 0.122400 0.782845
vt 0.644612 0.467155
vt 0.644612 0.927930
vt 0.629253 0.927930
vt 0.629253 0.467155
vt 0.270792 0.782845
vt 0.286151 0.782845
vt 0.286151 0.813563
vt 0.270792 0.813563
vt 0.211955 0.782845
vt 0.227315 0.782845
vt 0.227315 0.813563
vt 0.211955 0.813563
vt 0.385160 0.778592
vt 0.369800 0.778592
vt 0.369800 0.717155
vt 0.385160 0.717155
vt 0.801511 0.467155
vt 0.816870 0.467155
vt 0.816870 0.528592
vt 0.801511 0.528592
vt 0.002127 0.002127
vt 0.462902 0.002127
vt 0.462902 0.616494
vt 0.002127 0.616494
vt 0.280245 0.636106
vt 0.280245 0.697543
vt 0.264886 0.620747
vt 0.102788 0.778592
vt 0.087429 0.778592
vt 0.087429 0.717155
vt 0.102788 0.717155
vt 0.450849 0.813563
vt 0.435490 0.813563
vt 0.435490 0.752126
vt 0.450849 0.752126
vt 0.102788 0.813563
vt 0.087429 0.813563
vt 0.087429 0.782845
vt 0.102788 0.782845
vt 0.192343 0.782845
vt 0.207702 0.782845
vt 0.207702 0.813563
vt 0.192343 0.813563
vt 0.153119 0.782845
vt 0.168478 0.782845
vt 0.168478 0.813563
vt 0.153119 0.813563
vt 0.411625 0.813563
vt 0.396266 0.813563
vt 0.396266 0.752126
vt 0.411625 0.752126
vt 0.805764 0.664225
vt 0.821123 0.664225
vt 0.821123 0.725661
vt 0.805764 0.725661
s 0
usemtl palette.003
f 242/1/1 241/2/1 243/3/1 244/4/1
f 93/5/2 91/6/2 92/7/2 94/8/2
f 16/9/3 15/10/3 17/11/3 18/12/3
f 36/13/3 35/14/3 37/15/3 38/16/3
f 73/17/2 71/18/2 72/19/2 74/20/2
f 202/21/4 203/22/4 201/23/4 200/24/4
f 126/25/4 122/26/4 121/27/4 127/28/4 125/29/4 123/30/4 124/31/4
f 159/32/4 160/33/4 154/34/4 156/35/4 158/36/4 157/37/4
f 64/38/2 66/39/2 65/40/2 63/41/2
f 270/42/1 269/43/1 281/44/1 282/45/1
f 195/46/4 198/47/4 199/48/4 196/49/4
f 127/28/4 128/50/4 122/26/4 126/25/4 125/29/4
f 100/51/2 102/52/2 101/53/2 99/54/2
f 138/55/4 137/56/4 139/57/4 140/58/4 142/59/4 141/60/4 143/61/4 144/62/4
f 169/63/4 170/64/4 162/65/4 164/66/4 166/67/4 165/68/4
f 353/69/5 354/70/5 356/71/5 355/72/5
f 10/73/3 2/74/3 1/75/3 3/76/3 4/77/3 6/78/3 5/79/3 7/80/3 8/81/3 9/82/3
f 106/83/2 105/84/2 103/85/2 104/86/2 116/87/2 115/88/2 114/89/2 113/90/2 111/91/2 112/92/2 110/93/2 109/94/2 107/95/2 108/96/2
f 26/97/3 24/98/3 23/99/3 25/100/3
f 46/101/3 44/102/3 43/103/3 45/104/3
f 227/105/4 229/106/4 230/107/4 228/108/4
f 290/109/1 278/110/1 277/111/1 289/112/1
f 184/113/4 187/114/4 188/115/4 185/116/4
f 312/117/5 324/118/5 323/119/5 311/120/5
f 332/121/5 344/122/5 343/123/5 331/124/5
f 42/125/3 40/126/3 39/127/3 41/128/3
f 352/129/5 351/130/5 349/131/5 350/132/5
f 264/133/1 252/134/1 251/135/1 263/136/1
f 165/68/4 163/137/4 164/66/4 162/65/4 161/138/4 169/63/4
f 88/139/2 90/140/2 89/141/2 87/142/2
f 54/143/3 52/144/3 51/145/3 53/146/3
f 135/147/4 136/148/4 130/149/4 132/150/4 134/151/4 133/152/4
f 34/153/3 32/154/3 31/155/3 33/156/3
f 133/152/4 131/157/4 132/150/4 130/149/4 129/158/4 135/147/4
f 159/32/4 157/37/4 155/159/4 156/35/4 154/34/4 153/160/4
f 292/161/1 280/162/1 279/163/1 291/164/1
f 220/165/4 219/166/4 221/167/4 222/168/4
f 223/169/4 216/170/4 217/171/4 214/172/4 213/173/4 207/174/4 205/175/4 204/176/4 173/177/4 231/178/4 232/179/4 225/180/4 226/181/4 233/182/4 234/183/4 174/184/4 224/185/4
f 56/186/3 55/187/3 57/188/3 58/189/3
f 80/190/2 82/191/2 81/192/2 79/193/2
f 48/194/3 47/195/3 49/196/3 50/197/3
f 286/198/1 274/199/1 273/200/1 285/201/1
f 298/202/5 300/203/5 299/204/5 297/205/5
f 336/206/5 348/207/5 347/208/5 335/209/5
f 168/210/4 118/211/4 117/212/4 167/213/4
f 60/214/2 62/215/2 61/216/2 59/217/2
f 14/218/3 12/219/3 11/220/3 13/221/3
f 266/222/1 254/223/1 253/224/1 265/225/1
f 319/226/5 307/227/5 308/228/5 320/229/5
f 150/230/4 149/231/4 151/232/4 152/233/4 146/234/4
f 193/235/4 191/236/4 190/237/4 192/238/4
f 68/239/2 70/240/2 69/241/2 67/242/2
f 76/243/2 78/244/2 77/245/2 75/246/2
f 175/247/4 235/248/4 236/249/4 176/250/4
f 334/251/5 346/252/5 345/253/5 333/254/5
f 182/255/4 180/256/4 179/257/4 181/258/4
f 326/259/5 338/260/5 337/261/5 325/262/5
f 143/61/4 141/60/4 139/57/4 137/56/4
f 209/263/4 211/264/4 212/265/4 210/266/4
f 296/267/1 294/268/1 293/269/1 295/270/1
f 30/271/3 28/272/3 27/273/3 29/274/3
f 20/275/3 19/276/3 21/277/3 22/278/3
f 84/279/2 86/280/2 85/281/2 83/282/2
f 185/116/4 188/115/4 189/283/4 196/49/4 199/48/4 206/284/4 205/175/4 207/174/4 208/285/4 215/286/4 214/172/4 217/171/4 218/287/4 224/185/4 174/184/4 173/177/4 204/176/4 197/288/4 198/47/4 195/46/4 194/289/4 186/290/4 187/114/4 184/113/4 183/291/4 177/292/4 178/293/4
f 96/294/2 98/295/2 97/296/2 95/297/2
f 284/298/1 272/299/1 271/300/1 283/301/1
f 172/302/4 120/303/4 119/304/4 171/305/4
f 302/306/5 314/307/5 313/308/5 301/309/5
f 310/310/5 322/311/5 321/312/5 309/313/5
f 258/314/1 246/315/1 245/316/1 257/317/1
f 330/318/5 342/319/5 341/320/5 329/321/5
f 239/322/6 237/323/6 238/324/6 240/325/6
f 149/231/4 147/326/4 148/327/4 150/230/4 146/234/4 145/328/4 151/232/4
f 262/329/1 250/330/1 249/331/1 261/332/1
f 268/333/1 256/334/1 255/335/1 267/336/1
f 288/337/1 276/338/1 275/339/1 287/340/1
f 304/341/5 316/342/5 315/343/5 303/344/5
f 306/345/5 318/346/5 317/347/5 305/348/5
f 260/349/1 248/350/1 247/351/1 259/352/1
f 328/353/5 340/354/5 339/355/5 327/356/5
